<?xml version="1.0" encoding="utf-8" ?>
<svg baseProfile="tiny" height="296mm" version="1.2" width="210mm" xmlns="http://www.w3.org/2000/svg" xmlns:ev="http://www.w3.org/2001/xml-events" xmlns:xlink="http://www.w3.org/1999/xlink"><defs /><image height="40mm" preserveAspectRatio="xMidYMid meet" width="50mm" x="0mm" xlink:href="Q:/FETIQUE/fetique/Mures 2021.jpg" y="0mm" /><image height="40mm" preserveAspectRatio="xMidYMid meet" width="50mm" x="55mm" xlink:href="Q:/FETIQUE/fetique/Mures 2021.jpg" y="0mm" /><image height="40mm" preserveAspectRatio="xMidYMid meet" width="50mm" x="110mm" xlink:href="Q:/FETIQUE/fetique/Mures 2021.jpg" y="0mm" /><image height="40mm" preserveAspectRatio="xMidYMid meet" width="50mm" x="0mm" xlink:href="Q:/FETIQUE/fetique/Mures 2021.jpg" y="45mm" /><image height="40mm" preserveAspectRatio="xMidYMid meet" width="50mm" x="55mm" xlink:href="Q:/FETIQUE/fetique/Mures 2021.jpg" y="45mm" /><image height="40mm" preserveAspectRatio="xMidYMid meet" width="50mm" x="110mm" xlink:href="Q:/FETIQUE/fetique/Mures 2021.jpg" y="45mm" /><image height="40mm" preserveAspectRatio="xMidYMid meet" width="50mm" x="0mm" xlink:href="Q:/FETIQUE/fetique/Mures 2021.jpg" y="90mm" /><image height="40mm" preserveAspectRatio="xMidYMid meet" width="50mm" x="55mm" xlink:href="Q:/FETIQUE/fetique/Mures 2021.jpg" y="90mm" /><image height="40mm" preserveAspectRatio="xMidYMid meet" width="50mm" x="110mm" xlink:href="Q:/FETIQUE/fetique/Mures 2021.jpg" y="90mm" /><image height="40mm" preserveAspectRatio="xMidYMid meet" width="50mm" x="0mm" xlink:href="Q:/FETIQUE/fetique/Mures 2021.jpg" y="135mm" /><image height="40mm" preserveAspectRatio="xMidYMid meet" width="50mm" x="55mm" xlink:href="Q:/FETIQUE/fetique/Mures 2021.jpg" y="135mm" /><image height="40mm" preserveAspectRatio="xMidYMid meet" width="50mm" x="110mm" xlink:href="Q:/FETIQUE/fetique/Mures 2021.jpg" y="135mm" /><image height="40mm" preserveAspectRatio="xMidYMid meet" width="50mm" x="0mm" xlink:href="Q:/FETIQUE/fetique/Mures 2021.jpg" y="180mm" /><image height="40mm" preserveAspectRatio="xMidYMid meet" width="50mm" x="55mm" xlink:href="Q:/FETIQUE/fetique/Mures 2021.jpg" y="180mm" /><image height="40mm" preserveAspectRatio="xMidYMid meet" width="50mm" x="110mm" xlink:href="Q:/FETIQUE/fetique/Mures 2021.jpg" y="180mm" /><image height="40mm" preserveAspectRatio="xMidYMid meet" width="50mm" x="0mm" xlink:href="Q:/FETIQUE/fetique/Mures 2021.jpg" y="225mm" /><image height="40mm" preserveAspectRatio="xMidYMid meet" width="50mm" x="55mm" xlink:href="Q:/FETIQUE/fetique/Mures 2021.jpg" y="225mm" /></svg>